<svg xmlns="http://www.w3.org/2000/svg" width="255" height="44" viewBox="0 0 255 44">
  <g fill="none">
    <path fill="#C00" d="M7.3565792,15.0005837 C8.16262246,14.9843473 8.9398337,15.3074472 9.50643948,15.894317 L13,19.4692502 L16.4935605,15.894317 C17.0601663,15.3074472 17.8373775,14.9843473 18.6434208,15.0005837 C19.4471217,14.9970361 20.2197147,15.3182146 20.7932915,15.894317 L25.0930224,20.2941981 C25.6729273,20.8723258 26,21.6656644 26,22.4941387 C26,23.322613 25.6729273,24.1159517 25.0930224,24.6940793 L12.9999689,37 L0.906977613,24.6253257 C0.327072663,24.047198 0,23.2538594 0,22.4253851 C0,21.5969108 0.327072663,20.8035722 0.906977613,20.2254445 L5.20670855,15.8255634 C5.7973624,15.2852435 6.56437402,14.9909146 7.3565792,15.0005837 Z"/>
    <path fill="#262626" d="M39.468,9 L39.468,7.956 L35.244,7.956 L35.244,5.136 L39.156,5.136 L39.156,4.128 L35.244,4.128 L35.244,1.524 L39.468,1.524 L39.468,0.48 L34.044,0.48 L34.044,9 L39.468,9 Z M42,9 L42,5.304 C42,4.768 42.168,4.338 42.504,4.014 C42.84,3.69 43.252,3.528 43.74,3.528 C44.196,3.528 44.56,3.672 44.832,3.96 C45.104,4.248 45.24,4.664 45.24,5.208 L45.24,5.208 L45.24,9 L46.356,9 L46.356,5.028 C46.356,4.492 46.252,4.044 46.044,3.684 C45.836,3.324 45.56,3.054 45.216,2.874 C44.872,2.694 44.496,2.604 44.088,2.604 C43.688,2.604 43.284,2.704 42.876,2.904 C42.468,3.104 42.16,3.42 41.952,3.852 L41.952,3.852 L41.952,2.808 L40.872,2.808 L40.872,9 L42,9 Z M50.856,9 L50.856,8.016 L50.268,8.016 C49.988,8.016 49.772,7.958 49.62,7.842 C49.468,7.726 49.392,7.504 49.392,7.176 L49.392,7.176 L49.392,3.744 L50.856,3.744 L50.856,2.808 L49.392,2.808 L49.392,1.176 L48.372,1.176 L48.372,2.136 C48.372,2.392 48.328,2.568 48.24,2.664 C48.152,2.76 47.976,2.808 47.712,2.808 L47.712,2.808 L47.328,2.808 L47.328,3.744 L48.264,3.744 L48.264,7.368 C48.264,7.952 48.41,8.37 48.702,8.622 C48.994,8.874 49.392,9 49.896,9 L49.896,9 L50.856,9 Z M54.636,9.204 C55.052,9.204 55.452,9.13 55.836,8.982 C56.22,8.834 56.556,8.606 56.844,8.298 C57.132,7.99 57.336,7.6 57.456,7.128 L57.456,7.128 L56.292,7.128 C56.148,7.544 55.928,7.832 55.632,7.992 C55.336,8.152 55.004,8.232 54.636,8.232 C54.14,8.232 53.706,8.064 53.334,7.728 C52.962,7.392 52.752,6.9 52.704,6.252 L52.704,6.252 L57.54,6.252 C57.548,6.196 57.552,6.128 57.552,6.048 L57.552,6.048 L57.552,5.808 C57.552,5.144 57.426,4.572 57.174,4.092 C56.922,3.612 56.574,3.244 56.13,2.988 C55.686,2.732 55.176,2.604 54.6,2.604 C54.064,2.604 53.566,2.734 53.106,2.994 C52.646,3.254 52.274,3.626 51.99,4.11 C51.706,4.594 51.564,5.18 51.564,5.868 C51.564,6.564 51.7,7.162 51.972,7.662 C52.244,8.162 52.612,8.544 53.076,8.808 C53.54,9.072 54.06,9.204 54.636,9.204 Z M56.4,5.424 L52.704,5.424 C52.76,4.824 52.972,4.366 53.34,4.05 C53.708,3.734 54.124,3.576 54.588,3.576 C55.068,3.576 55.478,3.73 55.818,4.038 C56.158,4.346 56.352,4.808 56.4,5.424 L56.4,5.424 Z M59.916,9 L59.916,5.76 C59.916,5.192 60.058,4.728 60.342,4.368 C60.626,4.008 61.092,3.828 61.74,3.828 L61.74,3.828 L62.268,3.828 L62.268,2.748 L61.812,2.748 C61.364,2.748 60.966,2.87 60.618,3.114 C60.27,3.358 60.02,3.68 59.868,4.08 L59.868,4.08 L59.868,2.808 L58.788,2.808 L58.788,9 L59.916,9 Z M64.416,11.4 L64.416,7.932 C64.64,8.356 64.952,8.674 65.352,8.886 C65.752,9.098 66.172,9.204 66.612,9.204 C67.172,9.204 67.656,9.066 68.064,8.79 C68.472,8.514 68.79,8.128 69.018,7.632 C69.246,7.136 69.36,6.56 69.36,5.904 C69.36,5.24 69.248,4.662 69.024,4.17 C68.8,3.678 68.48,3.294 68.064,3.018 C67.648,2.742 67.156,2.604 66.588,2.604 C66.132,2.604 65.702,2.716 65.298,2.94 C64.894,3.164 64.584,3.504 64.368,3.96 L64.368,3.96 L64.368,2.808 L63.288,2.808 L63.288,11.4 L64.416,11.4 Z M66.324,8.232 C65.988,8.232 65.676,8.148 65.388,7.98 C65.1,7.812 64.866,7.554 64.686,7.206 C64.506,6.858 64.416,6.424 64.416,5.904 C64.416,5.368 64.506,4.928 64.686,4.584 C64.866,4.24 65.1,3.986 65.388,3.822 C65.676,3.658 65.988,3.576 66.324,3.576 C66.668,3.576 66.982,3.66 67.266,3.828 C67.55,3.996 67.778,4.252 67.95,4.596 C68.122,4.94 68.208,5.376 68.208,5.904 C68.208,6.424 68.122,6.856 67.95,7.2 C67.778,7.544 67.55,7.8 67.266,7.968 C66.982,8.136 66.668,8.224 66.324,8.232 Z M71.736,9 L71.736,5.76 C71.736,5.192 71.878,4.728 72.162,4.368 C72.446,4.008 72.912,3.828 73.56,3.828 L73.56,3.828 L74.088,3.828 L74.088,2.748 L73.632,2.748 C73.184,2.748 72.786,2.87 72.438,3.114 C72.09,3.358 71.84,3.68 71.688,4.08 L71.688,4.08 L71.688,2.808 L70.608,2.808 L70.608,9 L71.736,9 Z M75.696,1.644 C75.928,1.644 76.11,1.574 76.242,1.434 C76.374,1.294 76.44,1.124 76.44,0.924 C76.44,0.716 76.374,0.544 76.242,0.408 C76.11,0.272 75.928,0.204 75.696,0.204 C75.472,0.204 75.292,0.272 75.156,0.408 C75.02,0.544 74.952,0.716 74.952,0.924 C74.952,1.124 75.02,1.294 75.156,1.434 C75.292,1.574 75.472,1.644 75.696,1.644 Z M76.26,9 L76.26,2.808 L75.132,2.808 L75.132,9 L76.26,9 Z M80.136,9.204 C80.976,9.204 81.604,9.018 82.02,8.646 C82.436,8.274 82.644,7.808 82.644,7.248 C82.644,6.776 82.49,6.388 82.182,6.084 C81.874,5.78 81.384,5.56 80.712,5.424 L80.712,5.424 L79.764,5.232 C79.396,5.16 79.13,5.058 78.966,4.926 C78.802,4.794 78.72,4.612 78.72,4.38 C78.72,4.116 78.828,3.906 79.044,3.75 C79.26,3.594 79.584,3.516 80.016,3.516 C80.456,3.516 80.79,3.604 81.018,3.78 C81.246,3.956 81.384,4.176 81.432,4.44 L81.432,4.44 L82.536,4.44 C82.504,4.12 82.388,3.82 82.188,3.54 C81.988,3.26 81.708,3.034 81.348,2.862 C80.988,2.69 80.544,2.604 80.016,2.604 C79.296,2.604 78.716,2.774 78.276,3.114 C77.836,3.454 77.616,3.908 77.616,4.476 C77.616,4.94 77.772,5.32 78.084,5.616 C78.396,5.912 78.888,6.128 79.56,6.264 L79.56,6.264 L80.484,6.444 C80.86,6.516 81.13,6.616 81.294,6.744 C81.458,6.872 81.54,7.064 81.54,7.32 C81.54,7.64 81.422,7.882 81.186,8.046 C80.95,8.21 80.612,8.292 80.172,8.292 C79.212,8.292 78.672,7.94 78.552,7.236 L78.552,7.236 L77.448,7.236 C77.528,7.844 77.796,8.324 78.252,8.676 C78.708,9.028 79.336,9.204 80.136,9.204 Z M86.532,9.204 C86.948,9.204 87.348,9.13 87.732,8.982 C88.116,8.834 88.452,8.606 88.74,8.298 C89.028,7.99 89.232,7.6 89.352,7.128 L89.352,7.128 L88.188,7.128 C88.044,7.544 87.824,7.832 87.528,7.992 C87.232,8.152 86.9,8.232 86.532,8.232 C86.036,8.232 85.602,8.064 85.23,7.728 C84.858,7.392 84.648,6.9 84.6,6.252 L84.6,6.252 L89.436,6.252 C89.444,6.196 89.448,6.128 89.448,6.048 L89.448,6.048 L89.448,5.808 C89.448,5.144 89.322,4.572 89.07,4.092 C88.818,3.612 88.47,3.244 88.026,2.988 C87.582,2.732 87.072,2.604 86.496,2.604 C85.96,2.604 85.462,2.734 85.002,2.994 C84.542,3.254 84.17,3.626 83.886,4.11 C83.602,4.594 83.46,5.18 83.46,5.868 C83.46,6.564 83.596,7.162 83.868,7.662 C84.14,8.162 84.508,8.544 84.972,8.808 C85.436,9.072 85.956,9.204 86.532,9.204 Z M88.296,5.424 L84.6,5.424 C84.656,4.824 84.868,4.366 85.236,4.05 C85.604,3.734 86.02,3.576 86.484,3.576 C86.964,3.576 87.374,3.73 87.714,4.038 C88.054,4.346 88.248,4.808 88.296,5.424 L88.296,5.424 Z M96.576,9 C97.136,9 97.67,8.91 98.178,8.73 C98.686,8.55 99.136,8.282 99.528,7.926 C99.92,7.57 100.228,7.126 100.452,6.594 C100.676,6.062 100.788,5.444 100.788,4.74 C100.788,4.044 100.676,3.43 100.452,2.898 C100.228,2.366 99.92,1.92 99.528,1.56 C99.136,1.2 98.684,0.93 98.172,0.75 C97.66,0.57 97.12,0.48 96.552,0.48 L96.552,0.48 L93.72,0.48 L93.72,9 L96.576,9 Z M96.54,7.956 L94.92,7.956 L94.92,1.524 L96.516,1.524 C97.076,1.524 97.586,1.642 98.046,1.878 C98.506,2.114 98.874,2.47 99.15,2.946 C99.426,3.422 99.564,4.02 99.564,4.74 C99.564,5.46 99.426,6.058 99.15,6.534 C98.874,7.01 98.508,7.366 98.052,7.602 C97.596,7.838 97.092,7.956 96.54,7.956 L96.54,7.956 Z M102.72,1.644 C102.952,1.644 103.134,1.574 103.266,1.434 C103.398,1.294 103.464,1.124 103.464,0.924 C103.464,0.716 103.398,0.544 103.266,0.408 C103.134,0.272 102.952,0.204 102.72,0.204 C102.496,0.204 102.316,0.272 102.18,0.408 C102.044,0.544 101.976,0.716 101.976,0.924 C101.976,1.124 102.044,1.294 102.18,1.434 C102.316,1.574 102.496,1.644 102.72,1.644 Z M103.284,9 L103.284,2.808 L102.156,2.808 L102.156,9 L103.284,9 Z M107.688,11.568 C108.624,11.568 109.35,11.322 109.866,10.83 C110.382,10.338 110.64,9.68 110.64,8.856 L110.64,8.856 L110.64,2.808 L109.584,2.808 L109.584,3.948 C109.384,3.5 109.076,3.164 108.66,2.94 C108.244,2.716 107.82,2.604 107.388,2.604 C106.828,2.604 106.338,2.736 105.918,3 C105.498,3.264 105.172,3.632 104.94,4.104 C104.708,4.576 104.592,5.124 104.592,5.748 C104.592,6.372 104.708,6.92 104.94,7.392 C105.172,7.864 105.498,8.234 105.918,8.502 C106.338,8.77 106.824,8.904 107.376,8.904 C107.8,8.904 108.208,8.804 108.6,8.604 C108.992,8.404 109.296,8.116 109.512,7.74 L109.512,7.74 L109.512,8.868 C109.512,9.452 109.346,9.886 109.014,10.17 C108.682,10.454 108.248,10.596 107.712,10.596 C107.272,10.596 106.886,10.498 106.554,10.302 C106.222,10.106 106.008,9.8 105.912,9.384 L105.912,9.384 L104.808,9.384 C104.896,10.048 105.202,10.578 105.726,10.974 C106.25,11.37 106.904,11.568 107.688,11.568 Z M107.616,7.932 C107.288,7.932 106.982,7.852 106.698,7.692 C106.414,7.532 106.184,7.29 106.008,6.966 C105.832,6.642 105.744,6.236 105.744,5.748 C105.744,5.26 105.832,4.856 106.008,4.536 C106.184,4.216 106.414,3.976 106.698,3.816 C106.982,3.656 107.288,3.576 107.616,3.576 C107.944,3.576 108.254,3.654 108.546,3.81 C108.838,3.966 109.076,4.202 109.26,4.518 C109.444,4.834 109.536,5.244 109.536,5.748 C109.536,6.244 109.444,6.654 109.26,6.978 C109.076,7.302 108.838,7.542 108.546,7.698 C108.254,7.854 107.944,7.932 107.616,7.932 Z M112.848,1.644 C113.08,1.644 113.262,1.574 113.394,1.434 C113.526,1.294 113.592,1.124 113.592,0.924 C113.592,0.716 113.526,0.544 113.394,0.408 C113.262,0.272 113.08,0.204 112.848,0.204 C112.624,0.204 112.444,0.272 112.308,0.408 C112.172,0.544 112.104,0.716 112.104,0.924 C112.104,1.124 112.172,1.294 112.308,1.434 C112.444,1.574 112.624,1.644 112.848,1.644 Z M113.412,9 L113.412,2.808 L112.284,2.808 L112.284,9 L113.412,9 Z M117.984,9 L117.984,8.016 L117.396,8.016 C117.116,8.016 116.9,7.958 116.748,7.842 C116.596,7.726 116.52,7.504 116.52,7.176 L116.52,7.176 L116.52,3.744 L117.984,3.744 L117.984,2.808 L116.52,2.808 L116.52,1.176 L115.5,1.176 L115.5,2.136 C115.5,2.392 115.456,2.568 115.368,2.664 C115.28,2.76 115.104,2.808 114.84,2.808 L114.84,2.808 L114.456,2.808 L114.456,3.744 L115.392,3.744 L115.392,7.368 C115.392,7.952 115.538,8.37 115.83,8.622 C116.122,8.874 116.52,9 117.024,9 L117.024,9 L117.984,9 Z M120.828,9.18 C121.268,9.18 121.696,9.088 122.112,8.904 C122.528,8.72 122.852,8.432 123.084,8.04 C123.1,8.352 123.2,8.59 123.384,8.754 C123.568,8.918 123.84,9 124.2,9 L124.2,9 L124.752,9 L124.752,8.064 L124.548,8.064 C124.228,8.064 124.068,7.896 124.068,7.56 L124.068,7.56 L124.068,4.884 C124.068,4.38 123.954,3.96 123.726,3.624 C123.498,3.288 123.19,3.034 122.802,2.862 C122.414,2.69 121.976,2.604 121.488,2.604 C121.032,2.604 120.616,2.68 120.24,2.832 C119.864,2.984 119.564,3.2 119.34,3.48 C119.116,3.76 119.004,4.096 119.004,4.488 C119.004,4.584 119.012,4.68 119.028,4.776 L119.028,4.776 L120.072,4.776 C120.064,4.736 120.06,4.7 120.06,4.668 L120.06,4.668 L120.06,4.572 C120.06,4.22 120.202,3.962 120.486,3.798 C120.77,3.634 121.096,3.552 121.464,3.552 C121.92,3.552 122.28,3.664 122.544,3.888 C122.808,4.112 122.94,4.444 122.94,4.884 L122.94,4.884 L122.94,5.088 L120.996,5.34 C120.268,5.436 119.71,5.65 119.322,5.982 C118.934,6.314 118.74,6.768 118.74,7.344 C118.74,7.952 118.936,8.41 119.328,8.718 C119.72,9.026 120.22,9.18 120.828,9.18 Z M121.116,8.232 C120.74,8.232 120.442,8.144 120.222,7.968 C120.002,7.792 119.892,7.54 119.892,7.212 C119.892,6.9 120.004,6.662 120.228,6.498 C120.452,6.334 120.772,6.224 121.188,6.168 L121.188,6.168 L122.94,5.94 L122.94,6.48 C122.94,6.984 122.772,7.402 122.436,7.734 C122.1,8.066 121.66,8.232 121.116,8.232 Z M127.716,9 L127.716,8.016 L127.476,8.016 C127.148,8.016 126.984,7.844 126.984,7.5 L126.984,7.5 L126.984,0.12 L125.856,0.12 L125.856,7.74 C125.856,8.58 126.272,9 127.104,9 L127.104,9 L127.716,9 Z"/>
    <path fill="#C00" d="M42.447,37 C44.0176667,37 45.5005,36.7675 46.8955,36.3025 C48.2905,35.8375 49.5201667,35.1451667 50.5845,34.2255 C51.6488333,33.3058333 52.4858333,32.1588333 53.0955,30.7845 C53.7051667,29.4101667 54.01,27.8136667 54.01,25.995 C54.01,24.197 53.7103333,22.6108333 53.111,21.2365 C52.5116667,19.8621667 51.6798333,18.71 50.6155,17.78 C49.5511667,16.85 48.3266667,16.1525 46.942,15.6875 C45.5573333,15.2225 44.0693333,14.99 42.478,14.99 L42.478,14.99 L34.17,14.99 L34.17,37 L42.447,37 Z M42.447,32.288 L39.75,32.288 L39.75,19.702 L42.478,19.702 C44.152,19.702 45.5418333,20.2393333 46.6475,21.314 C47.7531667,22.3886667 48.306,23.949 48.306,25.995 C48.306,27.359 48.0528333,28.5111667 47.5465,29.4515 C47.0401667,30.3918333 46.3426667,31.0996667 45.454,31.575 C44.5653333,32.0503333 43.563,32.288 42.447,32.288 L42.447,32.288 Z M64.395,37.465 C65.573,37.465 66.72,37.2686667 67.836,36.876 C68.952,36.4833333 69.9285,35.8633333 70.7655,35.016 C71.6025,34.1686667 72.1656667,33.063 72.455,31.699 L72.455,31.699 L67.34,31.699 C67.0713333,32.381 66.6838333,32.8615 66.1775,33.1405 C65.6711667,33.4195 65.077,33.559 64.395,33.559 C63.4443333,33.559 62.6745,33.2696667 62.0855,32.691 C61.4965,32.1123333 61.14,31.2856667 61.016,30.211 L61.016,30.211 L72.517,30.211 C72.579,29.777 72.61,29.1776667 72.61,28.413 C72.61,26.7596667 72.269,25.3285 71.587,24.1195 C70.905,22.9105 69.944,21.9753333 68.704,21.314 C67.464,20.6526667 66.007,20.322 64.333,20.322 C62.845,20.322 61.4448333,20.6578333 60.1325,21.3295 C58.8201667,22.0011667 57.761,22.9621667 56.955,24.2125 C56.149,25.4628333 55.746,26.9766667 55.746,28.754 C55.746,30.5726667 56.1231667,32.133 56.8775,33.435 C57.6318333,34.737 58.66,35.7341667 59.962,36.4265 C61.264,37.1188333 62.7416667,37.465 64.395,37.465 Z M67.495,27.266 L61.016,27.266 C61.14,26.3153333 61.5016667,25.5713333 62.101,25.034 C62.7003333,24.4966667 63.434,24.228 64.302,24.228 C65.232,24.228 65.976,24.4915 66.534,25.0185 C67.092,25.5455 67.4123333,26.2946667 67.495,27.266 L67.495,27.266 Z M81.755,37.558 C84.0903333,37.558 85.909,37.062 87.211,36.07 C88.513,35.078 89.164,33.7036667 89.164,31.947 C89.164,30.5416667 88.7041667,29.4256667 87.7845,28.599 C86.8648333,27.7723333 85.4233333,27.2246667 83.46,26.956 L83.46,26.956 L81.104,26.615 C79.926,26.429 79.337,25.964 79.337,25.22 C79.337,24.8066667 79.5281667,24.4811667 79.9105,24.2435 C80.2928333,24.0058333 80.8146667,23.887 81.476,23.887 C82.9433333,23.887 83.77,24.476 83.956,25.654 L83.956,25.654 L88.823,25.654 C88.7196667,24.0213333 88.0118333,22.7245 86.6995,21.7635 C85.3871667,20.8025 83.677,20.322 81.569,20.322 C79.3783333,20.322 77.632,20.8128333 76.33,21.7945 C75.028,22.7761667 74.377,24.0936667 74.377,25.747 C74.377,28.4956667 76.2163333,30.149 79.895,30.707 L79.895,30.707 L82.375,31.079 C83.0363333,31.1823333 83.5065,31.3373333 83.7855,31.544 C84.0645,31.7506667 84.204,32.0606667 84.204,32.474 C84.204,33.4866667 83.4083333,33.993 81.817,33.993 C81.011,33.993 80.3651667,33.8276667 79.8795,33.497 C79.3938333,33.1663333 79.0993333,32.6806667 78.996,32.04 L78.996,32.04 L74.036,32.04 C74.2633333,33.8173333 75.0435,35.1813333 76.3765,36.132 C77.7095,37.0826667 79.5023333,37.558 81.755,37.558 Z M93.907,19.051 C94.7956667,19.051 95.5138333,18.7875 96.0615,18.2605 C96.6091667,17.7335 96.883,17.067 96.883,16.261 C96.883,15.455 96.6091667,14.7885 96.0615,14.2615 C95.5138333,13.7345 94.7956667,13.471 93.907,13.471 C93.0183333,13.471 92.295,13.7345 91.737,14.2615 C91.179,14.7885 90.9,15.455 90.9,16.261 C90.9,17.067 91.179,17.7335 91.737,18.2605 C92.295,18.7875 93.0183333,19.051 93.907,19.051 Z M96.511,37 L96.511,20.88 L91.272,20.88 L91.272,37 L96.511,37 Z M107.361,43.603 C110.192333,43.603 112.326167,42.8951667 113.7625,41.4795 C115.198833,40.0638333 115.917,38.1986667 115.917,35.884 L115.917,35.884 L115.917,20.88 L111.081,20.88 L111.081,23.174 C110.647,22.2853333 109.996,21.5878333 109.128,21.0815 C108.26,20.5751667 107.237,20.322 106.059,20.322 C104.591667,20.322 103.3155,20.6733333 102.2305,21.376 C101.1455,22.0786667 100.3085,23.0396667 99.7195,24.259 C99.1305,25.4783333 98.836,26.8733333 98.836,28.444 C98.836,30.0146667 99.1305,31.4096667 99.7195,32.629 C100.3085,33.8483333 101.135167,34.8093333 102.1995,35.512 C103.263833,36.2146667 104.519333,36.566 105.966,36.566 C107.040667,36.566 107.975833,36.3748333 108.7715,35.9925 C109.567167,35.6101667 110.202667,35.078 110.678,34.396 L110.678,34.396 L110.678,36.256 C110.678,37.4133333 110.399,38.2761667 109.841,38.8445 C109.283,39.4128333 108.487333,39.697 107.454,39.697 C106.627333,39.697 105.914333,39.5265 105.315,39.1855 C104.715667,38.8445 104.323,38.2916667 104.137,37.527 L104.137,37.527 L99.239,37.527 C99.4043333,39.4696667 100.220667,40.968 101.688,42.022 C103.155333,43.076 105.046333,43.603 107.361,43.603 Z M107.392,32.319 C106.544667,32.319 105.790333,32.009 105.129,31.389 C104.467667,30.769 104.137,29.7873333 104.137,28.444 C104.137,27.1006667 104.467667,26.1241667 105.129,25.5145 C105.790333,24.9048333 106.544667,24.6 107.392,24.6 C108.26,24.6 109.040167,24.9048333 109.7325,25.5145 C110.424833,26.1241667 110.771,27.1006667 110.771,28.444 C110.771,29.7873333 110.424833,30.769 109.7325,31.389 C109.040167,32.009 108.26,32.319 107.392,32.319 Z M124.132,37 L124.132,27.669 C124.132,26.7183333 124.416167,25.9588333 124.9845,25.3905 C125.552833,24.8221667 126.250333,24.538 127.077,24.538 C127.924333,24.538 128.570167,24.7963333 129.0145,25.313 C129.458833,25.8296667 129.681,26.522 129.681,27.39 L129.681,27.39 L129.681,37 L134.92,37 L134.92,26.553 C134.92,25.127 134.635833,23.9541667 134.0675,23.0345 C133.499167,22.1148333 132.775833,21.4328333 131.8975,20.9885 C131.019167,20.5441667 130.104667,20.322 129.154,20.322 C128.120667,20.322 127.108,20.5751667 126.116,21.0815 C125.124,21.5878333 124.38,22.3266667 123.884,23.298 L123.884,23.298 L123.884,20.88 L118.893,20.88 L118.893,37 L124.132,37 Z M153.024,37.558 C154.780667,37.558 156.320333,37.2841667 157.643,36.7365 C158.965667,36.1888333 159.999,35.3828333 160.743,34.3185 C161.487,33.2541667 161.859,31.9676667 161.859,30.459 C161.859,28.6816667 161.368167,27.2401667 160.3865,26.1345 C159.404833,25.0288333 157.839333,24.259 155.69,23.825 L155.69,23.825 L151.97,23.05 C151.143333,22.8846667 150.538833,22.6315 150.1565,22.2905 C149.774167,21.9495 149.583,21.4896667 149.583,20.911 C149.583,20.3323333 149.836167,19.8415 150.3425,19.4385 C150.848833,19.0355 151.577333,18.834 152.528,18.834 C153.52,18.834 154.300167,19.0613333 154.8685,19.516 C155.436833,19.9706667 155.783,20.57 155.907,21.314 L155.907,21.314 L161.363,21.314 C161.239,19.9913333 160.830833,18.8133333 160.1385,17.78 C159.446167,16.7466667 158.469667,15.9303333 157.209,15.331 C155.948333,14.7316667 154.377667,14.432 152.497,14.432 C150.885,14.432 149.428,14.711 148.126,15.269 C146.824,15.827 145.790667,16.633 145.026,17.687 C144.261333,18.741 143.879,20.012 143.879,21.5 C143.879,23.2153333 144.395667,24.6051667 145.429,25.6695 C146.462333,26.7338333 147.950333,27.4726667 149.893,27.886 L149.893,27.886 L153.613,28.63 C154.543,28.816 155.199167,29.0898333 155.5815,29.4515 C155.963833,29.8131667 156.155,30.2936667 156.155,30.893 C156.155,31.5543333 155.8915,32.0968333 155.3645,32.5205 C154.8375,32.9441667 154.057333,33.156 153.024,33.156 C152.032,33.156 151.200167,32.9028333 150.5285,32.3965 C149.856833,31.8901667 149.438333,31.172 149.273,30.242 L149.273,30.242 L143.507,30.242 C143.775667,32.5566667 144.716,34.3546667 146.328,35.636 C147.94,36.9173333 150.172,37.558 153.024,37.558 Z M166.664,43.2 C168.069333,43.2 169.206,43.0553333 170.074,42.766 C170.942,42.4766667 171.660167,41.9755 172.2285,41.2625 C172.796833,40.5495 173.329,39.542 173.825,38.24 L173.825,38.24 L180.397,20.88 L175.406,20.88 L171.934,31.265 L168.245,20.88 L162.944,20.88 L169.33,36.597 L169.175,37.031 C168.927,37.7336667 168.617,38.2141667 168.245,38.4725 C167.873,38.7308333 167.325333,38.86 166.602,38.86 L166.602,38.86 L165.207,38.86 L165.207,43.2 L166.664,43.2 Z M189.077,37.558 C191.412333,37.558 193.231,37.062 194.533,36.07 C195.835,35.078 196.486,33.7036667 196.486,31.947 C196.486,30.5416667 196.026167,29.4256667 195.1065,28.599 C194.186833,27.7723333 192.745333,27.2246667 190.782,26.956 L190.782,26.956 L188.426,26.615 C187.248,26.429 186.659,25.964 186.659,25.22 C186.659,24.8066667 186.850167,24.4811667 187.2325,24.2435 C187.614833,24.0058333 188.136667,23.887 188.798,23.887 C190.265333,23.887 191.092,24.476 191.278,25.654 L191.278,25.654 L196.145,25.654 C196.041667,24.0213333 195.333833,22.7245 194.0215,21.7635 C192.709167,20.8025 190.999,20.322 188.891,20.322 C186.700333,20.322 184.954,20.8128333 183.652,21.7945 C182.35,22.7761667 181.699,24.0936667 181.699,25.747 C181.699,28.4956667 183.538333,30.149 187.217,30.707 L187.217,30.707 L189.697,31.079 C190.358333,31.1823333 190.8285,31.3373333 191.1075,31.544 C191.3865,31.7506667 191.526,32.0606667 191.526,32.474 C191.526,33.4866667 190.730333,33.993 189.139,33.993 C188.333,33.993 187.687167,33.8276667 187.2015,33.497 C186.715833,33.1663333 186.421333,32.6806667 186.318,32.04 L186.318,32.04 L181.358,32.04 C181.585333,33.8173333 182.3655,35.1813333 183.6985,36.132 C185.0315,37.0826667 186.824333,37.558 189.077,37.558 Z M208.39,37 L208.39,32.815 L207.15,32.815 C206.509333,32.815 205.992667,32.6806667 205.6,32.412 C205.207333,32.1433333 205.011,31.6163333 205.011,30.831 L205.011,30.831 L205.011,24.755 L208.39,24.755 L208.39,20.88 L205.011,20.88 L205.011,16.354 L200.33,16.354 L200.33,18.741 C200.33,19.485 200.180167,20.0275 199.8805,20.3685 C199.580833,20.7095 199.038333,20.88 198.253,20.88 L198.253,20.88 L197.416,20.88 L197.416,24.755 L199.772,24.755 L199.772,31.916 C199.772,33.6726667 200.257667,34.9591667 201.229,35.7755 C202.200333,36.5918333 203.471333,37 205.042,37 L205.042,37 L208.39,37 Z M218.465,37.465 C219.643,37.465 220.79,37.2686667 221.906,36.876 C223.022,36.4833333 223.9985,35.8633333 224.8355,35.016 C225.6725,34.1686667 226.235667,33.063 226.525,31.699 L226.525,31.699 L221.41,31.699 C221.141333,32.381 220.753833,32.8615 220.2475,33.1405 C219.741167,33.4195 219.147,33.559 218.465,33.559 C217.514333,33.559 216.7445,33.2696667 216.1555,32.691 C215.5665,32.1123333 215.21,31.2856667 215.086,30.211 L215.086,30.211 L226.587,30.211 C226.649,29.777 226.68,29.1776667 226.68,28.413 C226.68,26.7596667 226.339,25.3285 225.657,24.1195 C224.975,22.9105 224.014,21.9753333 222.774,21.314 C221.534,20.6526667 220.077,20.322 218.403,20.322 C216.915,20.322 215.514833,20.6578333 214.2025,21.3295 C212.890167,22.0011667 211.831,22.9621667 211.025,24.2125 C210.219,25.4628333 209.816,26.9766667 209.816,28.754 C209.816,30.5726667 210.193167,32.133 210.9475,33.435 C211.701833,34.737 212.73,35.7341667 214.032,36.4265 C215.334,37.1188333 216.811667,37.465 218.465,37.465 Z M221.565,27.266 L215.086,27.266 C215.21,26.3153333 215.571667,25.5713333 216.171,25.034 C216.770333,24.4966667 217.504,24.228 218.372,24.228 C219.302,24.228 220.046,24.4915 220.604,25.0185 C221.162,25.5455 221.482333,26.2946667 221.565,27.266 L221.565,27.266 Z M234.306,37 L234.306,27.545 C234.306,26.6976667 234.559167,25.995 235.0655,25.437 C235.571833,24.879 236.207333,24.6 236.972,24.6 C237.757333,24.6 238.3515,24.8376667 238.7545,25.313 C239.1575,25.7883333 239.359,26.4186667 239.359,27.204 L239.359,27.204 L239.359,37 L244.598,37 L244.598,27.545 C244.598,26.6976667 244.856333,25.995 245.373,25.437 C245.889667,24.879 246.530333,24.6 247.295,24.6 C248.080333,24.6 248.669333,24.8428333 249.062,25.3285 C249.454667,25.8141667 249.651,26.4393333 249.651,27.204 L249.651,27.204 L249.651,37 L254.89,37 L254.89,26.336 C254.89,24.9306667 254.616167,23.7888333 254.0685,22.9105 C253.520833,22.0321667 252.823333,21.3811667 251.976,20.9575 C251.128667,20.5338333 250.229667,20.322 249.279,20.322 C248.287,20.322 247.295,20.5648333 246.303,21.0505 C245.311,21.5361667 244.525667,22.3163333 243.947,23.391 C243.471667,22.337 242.779333,21.562 241.87,21.066 C240.960667,20.57 239.999667,20.322 238.987,20.322 C238.036333,20.322 237.090833,20.5751667 236.1505,21.0815 C235.210167,21.5878333 234.502333,22.3576667 234.027,23.391 L234.027,23.391 L234.027,20.88 L229.067,20.88 L229.067,37 L234.306,37 Z"/>
  </g>
</svg>
